<mxfile host="app.diagrams.net" modified="2024-05-21T09:43:09.311Z" agent="Mozilla/5.0 (Windows NT 10.0; Win64; x64; rv:126.0) Gecko/20100101 Firefox/126.0" etag="oJrygYZz7JxMkAetd8r-" version="24.4.4" type="github">
  <diagram name="Page-1" id="21vEUviO_0k92Qmq46M9">
    <mxGraphModel dx="1112" dy="1167" grid="0" gridSize="10" guides="1" tooltips="1" connect="1" arrows="1" fold="1" page="0" pageScale="1" pageWidth="827" pageHeight="1169" math="0" shadow="0">
      <root>
        <mxCell id="0" />
        <mxCell id="1" parent="0" />
        <mxCell id="yiwpe0hT6fq-2XqB7yaG-16" value="Poste automatique" style="swimlane;whiteSpace=wrap;html=1;" vertex="1" parent="1">
          <mxGeometry x="-275" y="9" width="200" height="458" as="geometry" />
        </mxCell>
        <mxCell id="yiwpe0hT6fq-2XqB7yaG-24" value="" style="edgeStyle=none;curved=1;rounded=0;orthogonalLoop=1;jettySize=auto;html=1;fontSize=12;startSize=8;endSize=8;" edge="1" parent="yiwpe0hT6fq-2XqB7yaG-16" source="yiwpe0hT6fq-2XqB7yaG-7" target="yiwpe0hT6fq-2XqB7yaG-23">
          <mxGeometry relative="1" as="geometry">
            <Array as="points">
              <mxPoint x="103" y="135" />
            </Array>
          </mxGeometry>
        </mxCell>
        <mxCell id="yiwpe0hT6fq-2XqB7yaG-7" value="Se servir" style="ellipse;whiteSpace=wrap;html=1;" vertex="1" parent="yiwpe0hT6fq-2XqB7yaG-16">
          <mxGeometry x="40" y="45" width="120" height="80" as="geometry" />
        </mxCell>
        <mxCell id="yiwpe0hT6fq-2XqB7yaG-26" value="" style="edgeStyle=none;curved=1;rounded=0;orthogonalLoop=1;jettySize=auto;html=1;fontSize=12;startSize=8;endSize=8;" edge="1" parent="yiwpe0hT6fq-2XqB7yaG-16" source="yiwpe0hT6fq-2XqB7yaG-23" target="yiwpe0hT6fq-2XqB7yaG-25">
          <mxGeometry relative="1" as="geometry" />
        </mxCell>
        <mxCell id="yiwpe0hT6fq-2XqB7yaG-23" value="inserer carte" style="ellipse;whiteSpace=wrap;html=1;" vertex="1" parent="yiwpe0hT6fq-2XqB7yaG-16">
          <mxGeometry x="43" y="148" width="120" height="80" as="geometry" />
        </mxCell>
        <mxCell id="yiwpe0hT6fq-2XqB7yaG-28" value="" style="edgeStyle=none;curved=1;rounded=0;orthogonalLoop=1;jettySize=auto;html=1;fontSize=12;startSize=8;endSize=8;" edge="1" parent="yiwpe0hT6fq-2XqB7yaG-16" source="yiwpe0hT6fq-2XqB7yaG-25" target="yiwpe0hT6fq-2XqB7yaG-27">
          <mxGeometry relative="1" as="geometry" />
        </mxCell>
        <mxCell id="yiwpe0hT6fq-2XqB7yaG-25" value="choix carburant" style="ellipse;whiteSpace=wrap;html=1;" vertex="1" parent="yiwpe0hT6fq-2XqB7yaG-16">
          <mxGeometry x="43" y="248" width="120" height="80" as="geometry" />
        </mxCell>
        <mxCell id="yiwpe0hT6fq-2XqB7yaG-27" value="Payer" style="ellipse;whiteSpace=wrap;html=1;" vertex="1" parent="yiwpe0hT6fq-2XqB7yaG-16">
          <mxGeometry x="43" y="355" width="120" height="80" as="geometry" />
        </mxCell>
        <mxCell id="yiwpe0hT6fq-2XqB7yaG-32" value="" style="edgeStyle=none;curved=1;rounded=0;orthogonalLoop=1;jettySize=auto;html=1;fontSize=12;startSize=8;endSize=8;" edge="1" parent="1" source="yiwpe0hT6fq-2XqB7yaG-19" target="yiwpe0hT6fq-2XqB7yaG-31">
          <mxGeometry relative="1" as="geometry" />
        </mxCell>
        <mxCell id="yiwpe0hT6fq-2XqB7yaG-19" value="Client" style="shape=umlActor;verticalLabelPosition=bottom;verticalAlign=top;html=1;outlineConnect=0;" vertex="1" parent="1">
          <mxGeometry x="-190" y="-147" width="30" height="60" as="geometry" />
        </mxCell>
        <mxCell id="yiwpe0hT6fq-2XqB7yaG-22" value="" style="edgeStyle=none;curved=1;rounded=0;orthogonalLoop=1;jettySize=auto;html=1;fontSize=12;startSize=8;endSize=8;" edge="1" parent="1" source="yiwpe0hT6fq-2XqB7yaG-7" target="yiwpe0hT6fq-2XqB7yaG-19">
          <mxGeometry relative="1" as="geometry" />
        </mxCell>
        <mxCell id="yiwpe0hT6fq-2XqB7yaG-30" value="Poste manuel" style="swimlane;whiteSpace=wrap;html=1;" vertex="1" parent="1">
          <mxGeometry x="-38" y="-133" width="320" height="142" as="geometry" />
        </mxCell>
        <mxCell id="yiwpe0hT6fq-2XqB7yaG-34" value="" style="edgeStyle=none;curved=1;rounded=0;orthogonalLoop=1;jettySize=auto;html=1;fontSize=12;startSize=8;endSize=8;" edge="1" parent="yiwpe0hT6fq-2XqB7yaG-30" source="yiwpe0hT6fq-2XqB7yaG-31" target="yiwpe0hT6fq-2XqB7yaG-33">
          <mxGeometry relative="1" as="geometry" />
        </mxCell>
        <mxCell id="yiwpe0hT6fq-2XqB7yaG-31" value="Se servir" style="ellipse;whiteSpace=wrap;html=1;" vertex="1" parent="yiwpe0hT6fq-2XqB7yaG-30">
          <mxGeometry x="16" y="31" width="120" height="80" as="geometry" />
        </mxCell>
        <mxCell id="yiwpe0hT6fq-2XqB7yaG-33" value="choix carburant" style="ellipse;whiteSpace=wrap;html=1;" vertex="1" parent="yiwpe0hT6fq-2XqB7yaG-30">
          <mxGeometry x="177" y="31" width="120" height="80" as="geometry" />
        </mxCell>
      </root>
    </mxGraphModel>
  </diagram>
</mxfile>
